<svg width="256" height="256" viewBox="0 0 256 256" fill="none" xmlns="http://www.w3.org/2000/svg">
<rect width="256" height="256" rx="20" fill="#C1D9FA"/>
<path d="M26.618 191V168.832H31.616V191H26.618ZM36.8446 191V168.832H41.9786L47.7586 179.848L49.9346 184.744H50.0706C49.9572 183.565 49.8212 182.251 49.6626 180.8C49.5266 179.349 49.4586 177.967 49.4586 176.652V168.832H54.2186V191H49.0846L43.3046 179.95L41.1286 175.122H40.9926C41.1059 176.346 41.2306 177.661 41.3666 179.066C41.5252 180.471 41.6046 181.831 41.6046 183.146V191H36.8446ZM63.7739 191V173.048H57.6879V168.832H74.8919V173.048H68.8059V191H63.7739ZM78.3485 191V168.832H92.2205V173.048H83.3465V177.502H90.8945V181.684H83.3465V186.784H92.5605V191H78.3485ZM96.9754 191V168.832H104.965C106.144 168.832 107.243 168.945 108.263 169.172C109.306 169.399 110.213 169.784 110.983 170.328C111.754 170.849 112.366 171.552 112.819 172.436C113.273 173.32 113.499 174.419 113.499 175.734C113.499 177.366 113.137 178.715 112.411 179.78C111.709 180.823 110.757 181.605 109.555 182.126L114.587 191H108.977L104.727 183.01H101.973V191H96.9754ZM101.973 179.032H104.557C105.872 179.032 106.869 178.76 107.549 178.216C108.252 177.649 108.603 176.822 108.603 175.734C108.603 174.646 108.252 173.887 107.549 173.456C106.869 173.025 105.872 172.81 104.557 172.81H101.973V179.032ZM117.827 191V168.832H122.961L128.741 179.848L130.917 184.744H131.053C130.94 183.565 130.804 182.251 130.645 180.8C130.509 179.349 130.441 177.967 130.441 176.652V168.832H135.201V191H130.067L124.287 179.95L122.111 175.122H121.975C122.088 176.346 122.213 177.661 122.349 179.066C122.508 180.471 122.587 181.831 122.587 183.146V191H117.827ZM145.64 179.78L145.096 181.82H149.822L149.312 179.78C148.995 178.669 148.689 177.491 148.394 176.244C148.1 174.997 147.805 173.796 147.51 172.64H147.374C147.102 173.819 146.819 175.031 146.524 176.278C146.252 177.502 145.958 178.669 145.64 179.78ZM137.616 191L144.552 168.832H150.57L157.506 191H152.202L150.842 185.73H144.076L142.716 191H137.616ZM159.929 191V168.832H164.927V186.784H173.699V191H159.929ZM35.866 227.408C34.4607 227.408 33.1347 227.17 31.888 226.694C30.6413 226.195 29.542 225.47 28.59 224.518C27.6607 223.566 26.924 222.387 26.38 220.982C25.836 219.554 25.564 217.911 25.564 216.052C25.564 214.216 25.8473 212.584 26.414 211.156C26.9807 209.705 27.74 208.481 28.692 207.484C29.644 206.487 30.7547 205.727 32.024 205.206C33.2933 204.685 34.6307 204.424 36.036 204.424C37.464 204.424 38.7447 204.719 39.878 205.308C41.0113 205.875 41.952 206.543 42.7 207.314L40.048 210.51C39.4813 209.989 38.8807 209.569 38.246 209.252C37.634 208.912 36.9313 208.742 36.138 208.742C35.39 208.742 34.676 208.912 33.996 209.252C33.3387 209.569 32.7607 210.034 32.262 210.646C31.786 211.258 31.4007 212.006 31.106 212.89C30.834 213.774 30.698 214.771 30.698 215.882C30.698 218.171 31.1853 219.951 32.16 221.22C33.1347 222.467 34.438 223.09 36.07 223.09C36.9767 223.09 37.7813 222.897 38.484 222.512C39.2093 222.104 39.844 221.605 40.388 221.016L43.04 224.144C41.1813 226.32 38.79 227.408 35.866 227.408ZM54.1553 227.408C52.6593 227.408 51.288 227.147 50.0413 226.626C48.8173 226.082 47.7633 225.311 46.8793 224.314C45.9953 223.317 45.304 222.104 44.8053 220.676C44.3293 219.248 44.0913 217.627 44.0913 215.814C44.0913 214.001 44.3293 212.391 44.8053 210.986C45.304 209.558 45.9953 208.368 46.8793 207.416C47.7633 206.441 48.8173 205.705 50.0413 205.206C51.288 204.685 52.6593 204.424 54.1553 204.424C55.6513 204.424 57.0113 204.685 58.2353 205.206C59.482 205.705 60.5473 206.441 61.4313 207.416C62.3153 208.391 62.9953 209.592 63.4713 211.02C63.97 212.425 64.2193 214.023 64.2193 215.814C64.2193 217.627 63.97 219.248 63.4713 220.676C62.9953 222.104 62.3153 223.317 61.4313 224.314C60.5473 225.311 59.482 226.082 58.2353 226.626C57.0113 227.147 55.6513 227.408 54.1553 227.408ZM54.1553 223.09C55.674 223.09 56.8753 222.444 57.7593 221.152C58.6433 219.837 59.0853 218.058 59.0853 215.814C59.0853 213.593 58.6433 211.859 57.7593 210.612C56.8753 209.365 55.674 208.742 54.1553 208.742C52.6367 208.742 51.4353 209.365 50.5513 210.612C49.6673 211.859 49.2253 213.593 49.2253 215.814C49.2253 218.058 49.6673 219.837 50.5513 221.152C51.4353 222.444 52.6367 223.09 54.1553 223.09ZM68.3875 227V204.832H73.8615L77.4315 214.692C77.6582 215.349 77.8735 216.029 78.0775 216.732C78.2815 217.412 78.4969 218.092 78.7235 218.772H78.8595C79.0862 218.092 79.2902 217.412 79.4715 216.732C79.6755 216.029 79.8909 215.349 80.1175 214.692L83.6195 204.832H89.0595V227H84.5035V218.874C84.5035 218.33 84.5262 217.729 84.5715 217.072C84.6169 216.415 84.6735 215.757 84.7415 215.1C84.8095 214.42 84.8775 213.763 84.9455 213.128C85.0135 212.471 85.0815 211.87 85.1495 211.326H85.0135L83.2115 216.596L80.0495 225.062H77.2955L74.1335 216.596L72.3655 211.326H72.2295C72.2975 211.87 72.3655 212.471 72.4335 213.128C72.5015 213.763 72.5695 214.42 72.6375 215.1C72.7055 215.757 72.7622 216.415 72.8075 217.072C72.8529 217.729 72.8755 218.33 72.8755 218.874V227H68.3875ZM94.286 227V204.832H99.76L103.33 214.692C103.557 215.349 103.772 216.029 103.976 216.732C104.18 217.412 104.395 218.092 104.622 218.772H104.758C104.985 218.092 105.189 217.412 105.37 216.732C105.574 216.029 105.789 215.349 106.016 214.692L109.518 204.832H114.958V227H110.402V218.874C110.402 218.33 110.425 217.729 110.47 217.072C110.515 216.415 110.572 215.757 110.64 215.1C110.708 214.42 110.776 213.763 110.844 213.128C110.912 212.471 110.98 211.87 111.048 211.326H110.912L109.11 216.596L105.948 225.062H103.194L100.032 216.596L98.264 211.326H98.128C98.196 211.87 98.264 212.471 98.332 213.128C98.4 213.763 98.468 214.42 98.536 215.1C98.604 215.757 98.6606 216.415 98.706 217.072C98.7513 217.729 98.774 218.33 98.774 218.874V227H94.286ZM120.184 227V204.832H134.056V209.048H125.182V213.502H132.73V217.684H125.182V222.784H134.396V227H120.184ZM138.811 227V204.832H143.945L149.725 215.848L151.901 220.744H152.037C151.924 219.565 151.788 218.251 151.629 216.8C151.493 215.349 151.425 213.967 151.425 212.652V204.832H156.185V227H151.051L145.271 215.95L143.095 211.122H142.959C143.073 212.346 143.197 213.661 143.333 215.066C143.492 216.471 143.571 217.831 143.571 219.146V227H138.811ZM165.741 227V209.048H159.655V204.832H176.859V209.048H170.773V227H165.741ZM186.218 227.408C184.767 227.408 183.317 227.147 181.866 226.626C180.438 226.082 179.157 225.277 178.024 224.212L180.88 220.778C181.673 221.458 182.546 222.013 183.498 222.444C184.473 222.875 185.425 223.09 186.354 223.09C187.397 223.09 188.167 222.897 188.666 222.512C189.187 222.127 189.448 221.605 189.448 220.948C189.448 220.608 189.369 220.313 189.21 220.064C189.074 219.815 188.859 219.599 188.564 219.418C188.292 219.214 187.952 219.033 187.544 218.874C187.159 218.693 186.728 218.5 186.252 218.296L183.362 217.072C182.795 216.845 182.24 216.551 181.696 216.188C181.175 215.825 180.699 215.406 180.268 214.93C179.86 214.431 179.531 213.865 179.282 213.23C179.033 212.573 178.908 211.836 178.908 211.02C178.908 210.113 179.101 209.263 179.486 208.47C179.871 207.654 180.415 206.951 181.118 206.362C181.821 205.75 182.648 205.274 183.6 204.934C184.575 204.594 185.64 204.424 186.796 204.424C188.088 204.424 189.357 204.673 190.604 205.172C191.873 205.671 192.984 206.396 193.936 207.348L191.386 210.51C190.661 209.943 189.935 209.513 189.21 209.218C188.485 208.901 187.68 208.742 186.796 208.742C185.935 208.742 185.243 208.923 184.722 209.286C184.223 209.626 183.974 210.113 183.974 210.748C183.974 211.088 184.053 211.383 184.212 211.632C184.393 211.859 184.631 212.074 184.926 212.278C185.243 212.459 185.606 212.641 186.014 212.822C186.422 212.981 186.864 213.162 187.34 213.366L190.196 214.522C191.556 215.066 192.621 215.814 193.392 216.766C194.185 217.718 194.582 218.976 194.582 220.54C194.582 221.469 194.389 222.353 194.004 223.192C193.641 224.008 193.097 224.733 192.372 225.368C191.669 225.98 190.797 226.479 189.754 226.864C188.711 227.227 187.533 227.408 186.218 227.408Z" fill="#2E56B8"/>
<path d="M204.524 75.9862H135.051C132.351 75.9862 129.76 77.0568 127.847 78.9633C125.935 80.8699 124.856 83.4569 124.847 86.1576V123.756C124.855 126.452 125.931 129.036 127.839 130.942C129.746 132.847 132.33 133.921 135.026 133.927H142.061L139.349 145C143.32 144.638 147.177 143.471 150.682 141.57C154.188 139.669 157.271 137.075 159.742 133.944H204.524C207.221 133.938 209.805 132.864 211.712 130.958C213.62 129.052 214.695 126.469 214.704 123.773V86.1576C214.695 83.4613 213.62 80.878 211.712 78.9721C209.805 77.0663 207.221 75.9928 204.524 75.9862Z" fill="#2F80ED"/>
<path opacity="0.3" d="M204.524 75.9862H135.051C132.351 75.9862 129.76 77.0568 127.847 78.9633C125.935 80.8699 124.856 83.4569 124.847 86.1576V123.756C124.855 126.452 125.931 129.036 127.839 130.942C129.746 132.847 132.33 133.921 135.026 133.927H142.061L139.349 145C143.32 144.638 147.177 143.471 150.682 141.57C154.188 139.669 157.271 137.075 159.742 133.944H204.524C207.221 133.938 209.805 132.864 211.712 130.958C213.62 129.052 214.695 126.469 214.704 123.773V86.1576C214.695 83.4613 213.62 80.878 211.712 78.9721C209.805 77.0663 207.221 75.9928 204.524 75.9862Z" fill="black"/>
<path d="M196.339 113.551C201.085 113.551 204.933 109.703 204.933 104.957C204.933 100.21 201.085 96.3624 196.339 96.3624C191.592 96.3624 187.744 100.21 187.744 104.957C187.744 109.703 191.592 113.551 196.339 113.551Z" fill="#2F80ED"/>
<path d="M169.788 113.551C174.534 113.551 178.382 109.703 178.382 104.957C178.382 100.21 174.534 96.3624 169.788 96.3624C165.041 96.3624 161.193 100.21 161.193 104.957C161.193 109.703 165.041 113.551 169.788 113.551Z" fill="#2F80ED"/>
<path d="M143.245 113.551C147.992 113.551 151.84 109.703 151.84 104.957C151.84 100.21 147.992 96.3624 143.245 96.3624C138.499 96.3624 134.651 100.21 134.651 104.957C134.651 109.703 138.499 113.551 143.245 113.551Z" fill="#2F80ED"/>
<g opacity="0.1">
<path opacity="0.1" d="M196.339 113.551C201.085 113.551 204.933 109.703 204.933 104.957C204.933 100.21 201.085 96.3624 196.339 96.3624C191.592 96.3624 187.744 100.21 187.744 104.957C187.744 109.703 191.592 113.551 196.339 113.551Z" fill="#FAFAFA"/>
<path opacity="0.1" d="M169.788 113.551C174.534 113.551 178.382 109.703 178.382 104.957C178.382 100.21 174.534 96.3624 169.788 96.3624C165.041 96.3624 161.193 100.21 161.193 104.957C161.193 109.703 165.041 113.551 169.788 113.551Z" fill="#FAFAFA"/>
<path opacity="0.1" d="M143.245 113.551C147.992 113.551 151.84 109.703 151.84 104.957C151.84 100.21 147.992 96.3624 143.245 96.3624C138.499 96.3624 134.651 100.21 134.651 104.957C134.651 109.703 138.499 113.551 143.245 113.551Z" fill="#FAFAFA"/>
</g>
<path d="M34.1714 22H103.653C106.35 22.0088 108.934 23.0841 110.841 24.9913C112.748 26.8985 113.823 29.4826 113.832 32.1798V69.7698C113.815 72.4612 112.735 75.0368 110.829 76.9367C108.923 78.8367 106.344 79.9075 103.653 79.9162H96.6185L99.3553 90.9638C95.3832 90.6027 91.526 89.437 88.0187 87.5378C84.5114 85.6385 81.4273 83.0454 78.9541 79.9162H34.1714C31.4751 79.9074 28.8918 78.8318 26.9859 76.9244C25.0801 75.017 24.0066 72.4328 24 69.7364V32.1881C24.0044 29.4903 25.0769 26.904 26.983 24.9948C28.8891 23.0856 31.4736 22.0088 34.1714 22Z" fill="#2F80ED"/>
<path opacity="0.1" d="M34.1714 22H103.653C106.35 22.0088 108.934 23.0841 110.841 24.9913C112.748 26.8985 113.823 29.4826 113.832 32.1798V69.7698C113.815 72.4612 112.735 75.0368 110.829 76.9367C108.923 78.8367 106.344 79.9075 103.653 79.9162H96.6185L99.3553 90.9638C95.3832 90.6027 91.526 89.437 88.0187 87.5378C84.5114 85.6385 81.4273 83.0454 78.9541 79.9162H34.1714C31.4751 79.9074 28.8918 78.8318 26.9859 76.9244C25.0801 75.017 24.0066 72.4328 24 69.7364V32.1881C24.0044 29.4903 25.0769 26.904 26.983 24.9948C28.8891 23.0856 31.4736 22.0088 34.1714 22Z" fill="#FAFAFA"/>
<path d="M101.525 35.0919H36.2991V41.2665H101.525V35.0919Z" fill="#2F80ED"/>
<path d="M86.6055 47.8833H36.2991V54.0579H86.6055V47.8833Z" fill="#2F80ED"/>
<path d="M93.1723 60.6831H36.2991V66.8577H93.1723V60.6831Z" fill="#2F80ED"/>
<g opacity="0.3">
<path opacity="0.3" d="M101.526 35.0919H36.3V41.2665H101.526V35.0919Z" fill="black"/>
<path opacity="0.3" d="M86.6055 47.8833H36.2991V54.0579H86.6055V47.8833Z" fill="black"/>
<path opacity="0.3" d="M93.1723 60.6831H36.2991V66.8577H93.1723V60.6831Z" fill="black"/>
</g>
</svg>
